<?xml version="1.0" encoding="utf-8"?>
<!-- Generator: Adobe Illustrator 17.1.0, SVG Export Plug-In . SVG Version: 6.00 Build 0)  -->
<!DOCTYPE svg PUBLIC "-//W3C//DTD SVG 1.1//EN" "http://www.w3.org/Graphics/SVG/1.1/DTD/svg11.dtd">
<svg version="1.1" id="Layer_1" xmlns="http://www.w3.org/2000/svg" xmlns:xlink="http://www.w3.org/1999/xlink" x="0px" y="0px"
	 width="240px" height="240px" viewBox="80 80 240 240" enable-background="new 80 80 240 240" xml:space="preserve">
<g>
	<polygon fill="#999999" points="217.8,262.7 217.8,262.7 182.2,262.7 182.2,262.7 182.2,262.7 184.3,235.9 215.7,235.9 	"/>
	<g>
		<g>
			<path fill="#444444" d="M282.6,131H117.4c-3.5,0-6.4,2.9-6.4,6.4v97.2c0,3.5,2.9,6.4,6.4,6.4h165.2c3.5,0,6.4-2.9,6.4-6.4v-97.2
				C289,133.9,286.1,131,282.6,131z M279,230H121v-88h158V230z"/>
		</g>
		<circle cx="200.3" cy="136.6" r="1.5"/>
	</g>
	<path fill="#BDBDBD" d="M225.6,269h-51.2c-0.7,0-1.2-0.5-1.2-1.2v-4.3c0-0.7,0.5-1.2,1.2-1.2h51.2c0.7,0,1.2,0.5,1.2,1.2v4.3
		C226.8,268.4,226.2,269,225.6,269z"/>
</g>
<rect x="279" y="80" display="none" opacity="0.5" fill="#00ADEA" width="41" height="62"/>
<rect x="279" y="230" display="none" opacity="0.5" fill="#00ADEA" width="41" height="90"/>
</svg>
