<?xml version="1.0" encoding="utf-8"?>
<!-- Generator: Adobe Illustrator 18.1.1, SVG Export Plug-In . SVG Version: 6.00 Build 0)  -->
<!DOCTYPE svg PUBLIC "-//W3C//DTD SVG 1.1//EN" "http://www.w3.org/Graphics/SVG/1.1/DTD/svg11.dtd">
<svg version="1.1" id="Layer_1" xmlns="http://www.w3.org/2000/svg" xmlns:xlink="http://www.w3.org/1999/xlink" x="0px" y="0px"
	 width="400px" height="400px" viewBox="0 0 400 400" enable-background="new 0 0 400 400" xml:space="preserve">
<g>
	<g>
		<path fill="#444444" d="M140.2,226.2l16.4,130.5c0,7.3,5.9,13.3,13.3,13.3h60.4c7.3,0,13.3-5.9,13.3-13.3l16.4-130.5H140.2z"/>
		<g opacity="0.1">
			<defs>
				<path id="SVGID_1_" opacity="0.1" d="M140.2,226.2l16.4,130.5c0,7.3,5.9,13.3,13.3,13.3h60.4c7.3,0,13.3-5.9,13.3-13.3
					l16.4-130.5H140.2z"/>
			</defs>
			<clipPath id="SVGID_2_">
				<use xlink:href="#SVGID_1_"  overflow="visible"/>
			</clipPath>
		</g>
	</g>
	<g>
		<path fill="#444444" d="M243.5,43.3c0-7.3-5.9-13.3-13.3-13.3h-60.4c-7.3,0-13.3,5.9-13.3,13.3l-16.4,182.9h119.7L243.5,43.3z"/>
		<g>
			<defs>
				<path id="SVGID_3_" d="M243.5,43.3c0-7.3-5.9-13.3-13.3-13.3h-60.4c-7.3,0-13.3,5.9-13.3,13.3l-16.4,182.9h119.7L243.5,43.3z"/>
			</defs>
			<clipPath id="SVGID_4_">
				<use xlink:href="#SVGID_3_"  overflow="visible"/>
			</clipPath>
		</g>
	</g>
	<path fill="#262626" d="M266.6,107.5H133.4c-10.7,0-19.3,8.7-19.3,19.3v146.3c0,10.7,8.7,19.3,19.3,19.3h133.2
		c10.7,0,19.3-8.7,19.3-19.3V126.9C285.9,116.2,277.3,107.5,266.6,107.5z"/>
	<g>
		<defs>
			<path id="SVGID_5_" d="M266.6,107.5H133.4c-10.7,0-19.3,8.7-19.3,19.3v146.3c0,10.7,8.7,19.3,19.3,19.3h133.2
				c10.7,0,19.3-8.7,19.3-19.3V126.9C285.9,116.2,277.3,107.5,266.6,107.5z"/>
		</defs>
		<clipPath id="SVGID_6_">
			<use xlink:href="#SVGID_5_"  overflow="visible"/>
		</clipPath>
	</g>
	<rect x="130.3" y="139.9" width="139.5" height="120.2"/>
</g>
</svg>
