<?xml version="1.0" encoding="utf-8"?>
<!-- Generator: Adobe Illustrator 17.1.0, SVG Export Plug-In . SVG Version: 6.00 Build 0)  -->
<!DOCTYPE svg PUBLIC "-//W3C//DTD SVG 1.1//EN" "http://www.w3.org/Graphics/SVG/1.1/DTD/svg11.dtd">
<svg version="1.1" id="Layer_1" xmlns="http://www.w3.org/2000/svg" xmlns:xlink="http://www.w3.org/1999/xlink" x="0px" y="0px"
	 width="240px" height="240px" viewBox="80 80 240 240" enable-background="new 80 80 240 240" xml:space="preserve">
<g>
	<path fill="#444444" d="M275.7,146H124.2c-7.3,0-13.2,5.9-13.2,13.2V256h177.9v-96.8C288.9,151.9,283.1,146,275.7,146z M279,246
		H121v-88h158V246z"/>
</g>
<path fill="#999999" d="M291.5,267.3H108.5c-5.3,0-9.5-4.3-9.5-9.5l0,0c0-1,0.8-1.8,1.8-1.8h198.4c1,0,1.8,0.8,1.8,1.8l0,0
	C301,263.1,296.7,267.3,291.5,267.3z"/>
<rect x="272" y="80" display="none" opacity="0.3" fill="#00BDFF" width="48" height="78"/>
<rect x="272" y="246" display="none" opacity="0.3" fill="#00BDFF" width="48" height="74"/>
</svg>
