<?xml version="1.0" encoding="utf-8"?>
<!-- Generator: Adobe Illustrator 18.1.1, SVG Export Plug-In . SVG Version: 6.00 Build 0)  -->
<!DOCTYPE svg PUBLIC "-//W3C//DTD SVG 1.1//EN" "http://www.w3.org/Graphics/SVG/1.1/DTD/svg11.dtd">
<svg version="1.1" id="Layer_1" xmlns="http://www.w3.org/2000/svg" xmlns:xlink="http://www.w3.org/1999/xlink" x="0px" y="0px"
	 width="600px" height="600px" viewBox="0 0 600 600" enable-background="new 0 0 600 600" xml:space="preserve">
<g>
	<g>
		<path fill="#444444" d="M136.3,85.7c0-14.2,11.6-25.7,25.7-25.7L438,60c14.2,0,25.7,11.6,25.7,25.7l0,428.6
			c0,14.2-11.6,25.7-25.7,25.7L162,540c-14.2,0-25.7-11.6-25.7-25.7L136.3,85.7z"/>
	</g>
	<g>
		<defs>
			<path id="SVGID_1_" d="M136.3,85.7c0-14.2,11.6-25.7,25.7-25.7L438,60c14.2,0,25.7,11.6,25.7,25.7l0,428.6
				c0,14.2-11.6,25.7-25.7,25.7L162,540c-14.2,0-25.7-11.6-25.7-25.7L136.3,85.7z"/>
		</defs>
		<clipPath id="SVGID_2_">
			<use xlink:href="#SVGID_1_"  overflow="visible"/>
		</clipPath>
	</g>
	<rect x="153.7" y="101.9" fill="#999999" width="292.2" height="396.2"/>
	<g>
		<defs>
			<rect id="SVGID_3_" x="153.7" y="101.9" width="292.2" height="396.2"/>
		</defs>
		<clipPath id="SVGID_4_">
			<use xlink:href="#SVGID_3_"  overflow="visible"/>
		</clipPath>
	</g>
	<circle cx="300" cy="80.9" r="3.7"/>
</g>
</svg>
